<?xml version="1.0" encoding="utf-8"?>
<!-- Generator: Adobe Illustrator 24.1.0, SVG Export Plug-In . SVG Version: 6.00 Build 0)  -->
<svg version="1.1" id="Слой_1" xmlns="http://www.w3.org/2000/svg" xmlns:xlink="http://www.w3.org/1999/xlink" x="0px" y="0px"
	 viewBox="0 0 508.6 235" style="enable-background:new 0 0 508.6 235;" xml:space="preserve">
<style type="text/css">
	.st0{fill:none;stroke:#020203;stroke-width:2.126;stroke-miterlimit:10;}
	.st1{fill:none;stroke:#020203;stroke-width:2.126;stroke-miterlimit:10;stroke-dasharray:2.126;}
	
		.st2{fill-rule:evenodd;clip-rule:evenodd;fill:none;stroke:#020203;stroke-width:1.4173;stroke-linecap:square;stroke-miterlimit:10;}
	.st3{fill:none;stroke:#020203;stroke-width:1.4173;stroke-miterlimit:10;}
	.st4{fill-rule:evenodd;clip-rule:evenodd;fill:none;stroke:#020203;stroke-width:1.4173;stroke-miterlimit:10;}
	.st5{fill:#020203;}
	.st6{fill:none;}
	.st7{fill:#010202;}
	.st8{font-family:'TimesNewRomanPSMT';}
	.st9{font-size:10px;}
	.st10{letter-spacing:5;}
	.st11{fill-rule:evenodd;clip-rule:evenodd;fill:#FFFFFF;stroke:#020203;stroke-width:1.4173;stroke-miterlimit:10;}
</style>
<g>
	<g>
		<line class="st0" x1="0.2" y1="38.8" x2="508.6" y2="38.8"/>
	</g>
	<g>
		<line class="st1" x1="0" y1="60" x2="508.4" y2="60"/>
	</g>
	<rect x="102.3" y="145.4" class="st2" width="124.1" height="67.9"/>
	<line class="st3" x1="152.3" y1="145.4" x2="152.3" y2="38.8"/>
	<line class="st3" x1="279.8" y1="114.3" x2="158.4" y2="35.7"/>
	<g>
		<circle class="st4" cx="408.5" cy="21.3" r="9.5"/>
		<g>
			<path class="st5" d="M407.4,17.9L407.4,17.9l-1.5,0.8l-0.2-0.9l1.9-1h1v8.5h-1.1V17.9z"/>
			<path class="st5" d="M411.7,24.7c0-0.5,0.3-0.8,0.8-0.8c0.5,0,0.8,0.3,0.8,0.8c0,0.5-0.3,0.8-0.8,0.8
				C412,25.5,411.7,25.1,411.7,24.7z"/>
		</g>
	</g>
	<g>
		<circle class="st4" cx="212" cy="159.5" r="9.5"/>
		<g>
			<path class="st5" d="M209,163.7V163l0.9-0.9c2.2-2.1,3.1-3.1,3.1-4.4c0-0.9-0.4-1.6-1.7-1.6c-0.8,0-1.4,0.4-1.8,0.7l-0.4-0.8
				c0.6-0.5,1.4-0.9,2.4-0.9c1.8,0,2.6,1.2,2.6,2.5c0,1.6-1.1,2.8-2.9,4.5l-0.7,0.6v0h3.8v0.9H209z"/>
			<path class="st5" d="M215.7,163c0-0.5,0.3-0.8,0.8-0.8c0.5,0,0.8,0.3,0.8,0.8c0,0.5-0.3,0.8-0.8,0.8
				C216,163.8,215.7,163.5,215.7,163z"/>
		</g>
	</g>
	<rect x="303" y="44.6" class="st6" width="140.6" height="10.1"/>
	<text transform="matrix(1 0 0 1 303.0035 51.5252)" class="st7 st8 st9">Граница земельного участка</text>
	<rect x="283" y="115.2" class="st6" width="203.3" height="73.7"/>
	<text transform="matrix(1 0 0 1 283.0249 122.1662)"><tspan x="0" y="0" class="st7 st8 st9">Граница раздела собственности </tspan><tspan x="0" y="12" class="st7 st8 st9">Разграничение установленное в точке врезки </tspan><tspan x="0" y="24" class="st7 st8 st9">газопровода потребителя на подземном </tspan><tspan x="0" y="36" class="st7 st8 st9">газопроводе ПЭ Ø63 в районе земельного </tspan><tspan x="0" y="48" class="st7 st8 st9">участка по адресу</tspan></text>
	<rect x="110.5" y="196.3" class="st6" width="69.6" height="10.2"/>
	<text transform="matrix(1 0 0 1 110.5009 203.2252)" class="st7 st8 st9">Жилой дом</text>
	<rect x="13.5" y="124.3" class="st6" width="108.3" height="21.1"/>
	<text transform="matrix(1 0 0 1 13.4742 131.2255)"><tspan x="0" y="0" class="st7 st8 st9">сеть газопотребления</tspan><tspan x="91.8" y="0" class="st7 st8 st9 st10">	</tspan><tspan x="0" y="12" class="st7 st8 st9">жилого здания</tspan></text>
	<polygon class="st3" points="138.8,52.3 152.3,38.8 165.8,52.3 152.3,52.3 	"/>
	<g>
		<circle class="st11" cx="152.3" cy="38.9" r="7"/>
	</g>
</g>
</svg>
