<?xml version="1.0" encoding="utf-8"?>
<!-- Generator: Adobe Illustrator 24.1.0, SVG Export Plug-In . SVG Version: 6.00 Build 0)  -->
<svg version="1.1" id="Слой_1" xmlns="http://www.w3.org/2000/svg" xmlns:xlink="http://www.w3.org/1999/xlink" x="0px" y="0px"
	 viewBox="0 0 508.6 235" style="enable-background:new 0 0 508.6 235;" xml:space="preserve">
<style type="text/css">
	.st0{fill:none;stroke:#020203;stroke-width:2.126;stroke-miterlimit:10;}
	.st1{fill:none;stroke:#020203;stroke-width:2.126;stroke-miterlimit:10;stroke-dasharray:2.126;}
	.st2{fill:none;stroke:#020203;stroke-width:1.4173;stroke-linecap:square;stroke-miterlimit:10;}
	.st3{fill:none;stroke:#020203;stroke-width:1.4173;stroke-miterlimit:10;}
	.st4{fill:#020203;}
	.st5{fill:none;}
	.st6{fill:#010202;}
	.st7{font-family:'TimesNewRomanPSMT';}
	.st8{font-size:10px;}
	.st9{fill-rule:evenodd;clip-rule:evenodd;}
	.st10{letter-spacing:5;}
	.st11{fill:#FFFFFF;stroke:#020203;stroke-width:1.4173;stroke-miterlimit:10;}
	.st12{fill:none;stroke:#020203;stroke-width:1.4173;stroke-linecap:round;stroke-miterlimit:10;}
</style>
<g>
	<g>
		<line class="st0" x1="0.2" y1="38.8" x2="508.6" y2="38.8"/>
	</g>
	<g>
		<line class="st1" x1="0" y1="60" x2="508.4" y2="60"/>
	</g>
	<rect x="102.3" y="145.4" class="st2" width="124.1" height="67.9"/>
	<line class="st3" x1="152.3" y1="145.4" x2="152.3" y2="94"/>
	<line class="st0" x1="152.3" y1="94" x2="152.3" y2="40.1"/>
	<g>
		<circle class="st3" cx="408.5" cy="21.3" r="9.5"/>
		<g>
			<path class="st4" d="M407.4,17.9L407.4,17.9l-1.5,0.8l-0.2-0.9l1.9-1h1v8.5h-1.1L407.4,17.9L407.4,17.9z"/>
			<path class="st4" d="M411.7,24.7c0-0.5,0.3-0.8,0.8-0.8s0.8,0.3,0.8,0.8s-0.3,0.8-0.8,0.8S411.7,25.1,411.7,24.7z"/>
		</g>
	</g>
	<g>
		<circle class="st3" cx="212" cy="159.5" r="9.5"/>
		<g>
			<path class="st4" d="M209,163.7V163l0.9-0.9c2.2-2.1,3.1-3.1,3.1-4.4c0-0.9-0.4-1.6-1.7-1.6c-0.8,0-1.4,0.4-1.8,0.7l-0.4-0.8
				c0.6-0.5,1.4-0.9,2.4-0.9c1.8,0,2.6,1.2,2.6,2.5c0,1.6-1.1,2.8-2.9,4.5l-0.7,0.6l0,0h3.8v0.9L209,163.7L209,163.7z"/>
			<path class="st4" d="M215.7,163c0-0.5,0.3-0.8,0.8-0.8s0.8,0.3,0.8,0.8s-0.3,0.8-0.8,0.8S215.7,163.5,215.7,163z"/>
		</g>
	</g>
	<rect x="303" y="44.6" class="st5" width="140.6" height="10.1"/>
	<text transform="matrix(1 0 0 1 303.0035 51.5252)" class="st6 st7 st8">Граница земельного участка</text>
	<rect x="283" y="115.2" class="st5" width="203.3" height="73.7"/>
	<text transform="matrix(1 0 0 1 283.0249 122.1662)" class="st6 st7 st8">Граница раздела собственности </text>
	<g>
		<g>
			<defs>
				<rect id="SVGID_1_" x="49.6" y="415.8" width="497.3" height="10.3"/>
			</defs>
			<clipPath id="SVGID_2_">
				<use xlink:href="#SVGID_1_"  style="overflow:visible;"/>
			</clipPath>
			<g style="clip-path:url(#SVGID_2_);">
				<text transform="matrix(1.0007 0 0 1 49.5938 424.1866)"><tspan x="0" y="0" class="st7" style="font-size:9.0155px;">Ад</tspan><tspan x="11.1" y="0" class="st7" style="font-size:9.0155px;">р</tspan><tspan x="15.6" y="0" class="st7" style="font-size:9.0155px;">е</tspan><tspan x="19.6" y="0" class="st7" style="font-size:9.0155px;">с</tspan></text>
			</g>
		</g>
		<g>
			<defs>
				<rect id="SVGID_3_" x="49.6" y="415.8" width="497.3" height="10.3"/>
			</defs>
			<clipPath id="SVGID_4_">
				<use xlink:href="#SVGID_3_"  style="overflow:visible;"/>
			</clipPath>
			<g style="clip-path:url(#SVGID_4_);">
				<text transform="matrix(1.0007 0 0 1 73.1719 424.1866)" class="st7" style="font-size:9.9772px;"> </text>
			</g>
		</g>
		<polyline class="st9" points="49.6,425.1 49.6,425.6 73.2,425.6 73.2,425.1 49.6,425.1 		"/>
	</g>
	<text transform="matrix(1 0 0 1 283.0249 134.1662)" class="st6 st7 st8">Адрес </text>
	<rect x="110.5" y="196.3" class="st5" width="69.6" height="10.2"/>
	<text transform="matrix(1 0 0 1 110.5009 203.2252)" class="st6 st7 st8">Жилой дом</text>
	<rect x="13.5" y="124.3" class="st5" width="108.3" height="21.1"/>
	<text transform="matrix(1 0 0 1 13.4742 131.2255)" class="st6 st7 st8">сеть газопотребления</text>
	<text transform="matrix(1 0 0 1 95.563 107.5499)" class="st6 st7 st8">КШ-25</text>
	<text transform="matrix(1 0 0 1 105.2742 131.2255)" class="st6 st7 st8 st10"> </text>
	<text transform="matrix(1 0 0 1 13.4742 143.2255)" class="st6 st7 st8">жилого здания</text>
	<g>
		<polygon class="st11" points="138.8,121 152.3,107.5 165.8,121 152.3,121 		"/>
		<polygon class="st11" points="165.8,94 152.3,107.5 138.8,94 152.3,94 		"/>
	</g>
	<g>
		<line class="st3" x1="280.3" y1="114.3" x2="152.8" y2="60"/>
		<line class="st12" x1="152.8" y1="60" x2="158.1" y2="65.4"/>
		<line class="st12" x1="152.8" y1="60" x2="160.3" y2="60"/>
	</g>
</g>
</svg>
